<svg width="42" height="42" viewBox="0 0 42 42" fill="none" xmlns="http://www.w3.org/2000/svg">
    <path
        d="M27.6012 37.2656C27.5631 37.7987 27.3682 38.3087 27.041 38.7314C26.7138 39.154 26.2689 39.4705 25.7623 39.6409L22.5389 40.6006C22.209 40.682 21.866 40.6951 21.5309 40.639C21.1959 40.5829 20.8758 40.4589 20.5904 40.2745C20.3051 40.0901 20.0605 39.8493 19.8717 39.5668C19.6829 39.2843 19.5539 38.9662 19.4926 38.6321C19.3062 37.9495 19.3825 37.2218 19.7066 36.5927C20.0307 35.9637 20.5789 35.4791 21.243 35.2347L24.4664 34.2767C24.8847 34.1547 25.329 34.1528 25.7484 34.2711C26.1678 34.3895 26.5455 34.6233 26.8384 34.946C29.3387 33.7962 31.3877 31.8505 32.6652 29.4129H31.845C30.6009 29.3446 29.4345 28.7865 28.6008 27.8606C27.7671 26.9347 27.334 25.7163 27.3962 24.472V19.5261C27.3345 18.282 27.7678 17.064 28.6014 16.1385C29.4351 15.2129 30.6012 14.6551 31.845 14.5868H32.9572C33.1162 14.5869 33.275 14.5962 33.4329 14.6147C32.7137 11.8655 31.1036 9.43231 28.8543 7.69573C26.605 5.95916 23.8435 5.01718 21.0018 5.01718C18.1602 5.01718 15.3987 5.95916 13.1494 7.69573C10.9001 9.43231 9.28987 11.8655 8.57071 14.6147C8.72862 14.5962 8.88745 14.5869 9.04643 14.5868H10.1586C11.4015 14.6563 12.5664 15.2147 13.399 16.1401C14.2316 17.0656 14.6643 18.2828 14.6025 19.5261V24.4654C14.6647 25.7098 14.2316 26.9281 13.3979 27.854C12.5642 28.78 11.3978 29.3381 10.1537 29.4063H9.04151C7.79893 29.3372 6.63412 28.7794 5.80127 27.8547C4.96842 26.9299 4.53514 25.7133 4.59597 24.4703V19.5261C4.59597 19.3981 4.59597 19.2702 4.60909 19.1439C4.60064 19.066 4.59626 18.9877 4.59597 18.9093C4.59597 9.17503 11.9549 1.3125 21.0002 1.3125C30.0454 1.3125 37.4044 9.17503 37.4044 18.9093C37.4041 18.9877 37.3997 19.066 37.3912 19.1439C37.3912 19.2702 37.4044 19.3981 37.4044 19.5261V24.4654C37.4148 25.2292 37.2542 25.9858 36.9343 26.6795C36.6144 27.3732 36.1434 27.9866 35.5556 28.4746C34.8913 30.4001 33.844 32.1711 32.477 33.6811C31.1099 35.1911 29.4514 36.4087 27.6012 37.2607V37.2656Z"
        fill="white"/>
</svg>
