<svg width="24" height="24" viewBox="0 0 24 24" fill="none" xmlns="http://www.w3.org/2000/svg">
    <path
        d="M9.47918 18.8959C9.06251 19.2084 8.47918 19.1876 8.08334 18.8542C7.9909 18.7696 7.91718 18.6666 7.86695 18.5518C7.81672 18.437 7.79108 18.3129 7.79168 18.1876C7.79168 17.9376 7.89584 17.6876 8.08334 17.5209L16.625 9.20842C16.7578 9.07792 16.8633 8.92228 16.9353 8.75059C17.0072 8.5789 17.0443 8.39459 17.0443 8.20842C17.0443 8.02224 17.0072 7.83793 16.9353 7.66624C16.8633 7.49455 16.7578 7.33891 16.625 7.20842C16.3487 6.94595 15.981 6.80134 15.6 6.80523C15.2189 6.80912 14.8543 6.96119 14.5833 7.22925L4.56251 17.0626C3.89584 17.7292 3.52084 18.6251 3.52084 19.5626C3.52084 20.5001 3.89584 21.3959 4.56251 22.0626C6.00001 23.4167 8.25001 23.4167 9.66668 22.0626L10.875 20.8959L11.1875 20.5834L20.4167 11.5834C21.5 10.5417 22.125 9.10425 22.125 7.58342C22.125 6.06258 21.5 4.62508 20.4167 3.58342C19.3187 2.5211 17.8507 1.92721 16.3229 1.92721C14.7951 1.92721 13.3272 2.5211 12.2292 3.58342L2.95834 12.5209C2.83334 12.6042 2.72918 12.7084 2.64584 12.8334C2.47918 13.0209 2.22918 13.1251 1.95834 13.1251C1.68751 13.1251 1.45834 13.0209 1.29168 12.8334C1.19923 12.7488 1.12552 12.6458 1.07528 12.531C1.02505 12.4161 0.99941 12.2921 1.00001 12.1667C1.00001 11.9167 1.10418 11.6667 1.29168 11.5001L1.37501 11.4167C1.45834 11.3751 1.54168 11.2917 1.60418 11.2084L10.875 2.22925C13.9167 -0.687419 18.7292 -0.687419 21.7917 2.22925C23.2292 3.62508 24.0417 5.54175 24.0417 7.56258C24.0417 9.56258 23.2292 11.4792 21.7917 12.8959L11.0417 23.4167C9.98092 24.4295 8.57074 24.9945 7.10418 24.9945C5.63761 24.9945 4.22744 24.4295 3.16668 23.4167C2.65178 22.9199 2.24226 22.3244 1.96256 21.6658C1.68285 21.0072 1.5387 20.299 1.5387 19.5834C1.5387 18.8679 1.68285 18.1597 1.96256 17.5011C2.24226 16.8425 2.65178 16.247 3.16668 15.7501L13.2292 5.91675C13.8638 5.29579 14.7163 4.94807 15.6042 4.94807C16.492 4.94807 17.3446 5.29579 17.9792 5.91675C18.2897 6.21656 18.5366 6.57583 18.7053 6.97313C18.8739 7.37043 18.9609 7.79763 18.9609 8.22925C18.9609 8.66087 18.8739 9.08807 18.7053 9.48537C18.5366 9.88267 18.2897 10.2419 17.9792 10.5417L9.47918 18.8959Z"
        fill="#333333"/>
</svg>
