<svg width="24" height="24" viewBox="0 0 24 24" fill="none" xmlns="http://www.w3.org/2000/svg">
    <path
        d="M20.5014 9.63997V7.04528C20.5014 6.00261 19.6832 5.15369 18.6781 5.15369H12.4381L12.2089 4.73822C11.8855 4.15297 11.279 3.78943 10.6282 3.78943H4.56339C3.44091 3.78743 2.52637 4.73622 2.52637 5.90074V18.0972C2.52637 19.2617 3.44091 20.2105 4.56339 20.2105H19.4367C20.5592 20.2105 21.4737 19.2617 21.4737 18.0972V11.4397C21.4757 10.6786 21.0848 10.0135 20.5014 9.63997ZM18.6781 6.7177C18.8514 6.7177 18.9939 6.86351 18.9939 7.04528V9.32837H14.7466L13.3025 6.71969H18.6781V6.7177ZM19.9662 18.0972C19.9662 18.3988 19.7294 18.6445 19.4386 18.6445H4.56339C4.27266 18.6445 4.03392 18.3988 4.03392 18.0972V5.90074C4.03392 5.59912 4.27073 5.35344 4.56339 5.35344H10.6263C10.738 5.35344 10.8439 5.41736 10.8997 5.51723L13.5028 10.2212C13.7319 10.6347 14.1593 10.8924 14.6195 10.8924H19.4367C19.7274 10.8924 19.9643 11.1381 19.9643 11.4397V18.0972H19.9662Z"
        stroke-width="2" fill="#333333"/>
</svg>
