<svg width="14" height="14" viewBox="0 0 14 14" fill="none" xmlns="http://www.w3.org/2000/svg">
    <path
        d="M6.99385 1.43103C5.77729 1.43225 4.58841 1.79411 3.57747 2.47088C2.56653 3.14765 1.77893 4.10894 1.31421 5.23324C0.849501 6.35754 0.728542 7.59437 0.966626 8.78741C1.20471 9.98044 1.79115 11.0761 2.65181 11.9359C3.51248 12.7957 4.60873 13.3811 5.802 13.618C6.99527 13.8548 8.23199 13.7326 9.35582 13.2668C10.4797 12.801 11.4402 12.0124 12.1159 11.0008C12.7917 9.98918 13.1523 8.79993 13.1523 7.58338C13.1523 6.77492 12.993 5.97439 12.6834 5.22756C12.3739 4.48072 11.9201 3.80221 11.3482 3.23084C10.7762 2.65946 10.0973 2.20641 9.35014 1.89759C8.60299 1.58876 7.80231 1.43022 6.99385 1.43103ZM9.61475 10.1322L6.38477 8.19422V4.50281H7.30762V7.73279L10.0762 9.37547L9.61475 10.1322Z"
        fill="#D02129"/>
</svg>
