<svg width="24" height="24" viewBox="0 0 38 38" fill="none" xmlns="http://www.w3.org/2000/svg">
    <path
        d="M 11 10.4499V27.8666H26.8548V10.4499H11.0832ZM8.9235 10.4499H5.42909V13.8335H8.92509L8.9235 10.4499ZM8.9235 16.3336H5.42909V21.3338H8.92509L8.9235 16.3336ZM8.9235 23.8338H5.42909V27.8666H8.92509L8.9235 23.8338ZM22.8141 17.9787C23.126 18.1924 23.316 18.5803 23.316 18.9999C23.316 19.4195 23.126 19.8074 22.8141 20.0212L17.673 23.5837C17.5224 23.6906 17.3427 23.7491 17.158 23.7514C16.9733 23.7536 16.7923 23.6996 16.6391 23.5963C16.4747 23.4799 16.3414 23.3248 16.2509 23.1448C16.1603 22.9649 16.1153 22.7654 16.1198 22.564V15.439C16.1198 15.0115 16.3177 14.6173 16.6391 14.4067C16.9605 14.1961 17.3548 14.1993 17.673 14.4178L22.8141 17.9787ZM32.5706 14.2499V10.4499H29.0746V14.2499H32.5706ZM32.5706 16.6249H29.0746V21.3749H32.5706V16.6249ZM32.5706 23.7499H29.0746V27.8666H32.5706V23.7499ZM32.5706 31.6666H5.42909C4.17984 31.6666 3.1665 30.5313 3.1665 29.1333V8.86659C3.1665 7.46692 4.17984 6.33325 5.42909 6.33325H32.5722C33.8198 6.33325 34.8332 7.46692 34.8332 8.86659V29.1333C34.8332 30.5313 33.8198 31.6666 32.5706 31.6666Z"
        fill="#333333"/>
</svg>
